# xmcd
#
# Track frame offsets:
#	150
#	16790
#	33897
#	48465
#	61860
#	78792
#	93792
#	108587
#	119987
#	144865
#
# Disc length: 2245 seconds
#
# Revision: 0
# Processed by: cddbd v1.5.1PL0 Copyright (c) Steve Scherf et al.
# Submitted via: audiograbber 1.83.01
#
DISCID=7508c30a
DTITLE=Traveling Wilburys - Handle With Care (Volume Two)
DYEAR=1900
DGENRE=Country
TTITLE0=Walk Away
TTITLE1=Last Night
TTITLE2=Congratulations
TTITLE3=Rattled
TTITLE4=Heading For The Light
TTITLE5=End Of The Line
TTITLE6=Handle With Care
TTITLE7=Dirty World
TTITLE8=End Of The Line (12')
TTITLE9=Handle With Care (12')
EXTD=Limited Edition
EXTT0=
EXTT1=
EXTT2=
EXTT3=
EXTT4=
EXTT5=
EXTT6=
EXTT7=
EXTT8=
EXTT9=
PLAYORDER=
